

-: Cover :- 


 
http://desibbrg.org/images/07987390972923411559.jpg

-: Screens :-


    	http://desibbrg.org/images/51091881596299996489.png
    	http://desibbrg.org/images/36205367472688871570.png
    	http://desibbrg.org/images/17928384764877676357.png
    	http://desibbrg.org/images/55209489338088223404.png
    	http://desibbrg.org/images/74809946970457790384.png
    	http://desibbrg.org/images/88399154607931183898.png
    	http://desibbrg.org/images/52205206771350055825.png
    	http://desibbrg.org/images/14342171417064692660.png
    	http://desibbrg.org/images/68083865994758436087.gif

-: Info :-  


General

Format                           : AVI
Format/Info                      : Audio Video Interleave
File size                        : 1.45 GiB
Duration                         : 2h 39mn
Overall bit rate                 : 1 299 Kbps
Writing application              : VirtualDubMod 1.5.10.2 (build 2540/release)
Writing library                  : VirtualDubMod build 2540/release

Video
ID                               : 0
Format                           : MPEG-4 Visual
Format profile                   : Advanced Simple@L5
Format settings, BVOP            : Yes
Format settings, QPel            : No
Format settings, GMC             : No warppoints
Format settings, Matrix          : Custom
Codec ID                         : XVID
Codec ID/Hint                    : XviD
Duration                         : 2h 39mn
Bit rate                         : 842 Kbps
Width                            : 672 pixels
Height                           : 288 pixels
Display aspect ratio             : 2.35:1
Frame rate                       : 23.976 fps
Color space                      : YUV
Chroma subsampling               : 4:2:0
Bit depth                        : 8 bits
Scan type                        : Progressive
Bits/(Pixel*Frame)               : 0.181
Stream size                      : 962 MiB (65%)
Writing library                  : XviD 1.2.1 (UTC 2008-12-04)

Audio
ID                               : 1
Format                           : AC-3
Format/Info                      : Audio Coding 3
Mode extension                   : CM (complete main)
Codec ID                         : 2000
Duration                         : 2h 39mn
Bit rate mode                    : Constant
Bit rate                         : 448 Kbps
Channel(s)                       : 6 channels
Channel positions                : Front: L C R, Side: L R, LFE
Sampling rate                    : 48.0 KHz
Bit depth                        : 16 bits
Stream size                      : 512 MiB (34%)
Alignment                        : Split accross interleaves
Interleave, duration             : 42 ms (1.00 video frame)
Interleave, preload duration     : 500 ms


 
http://www.imdb.com/title/tt2358412/

Banner
Reel Life Entertainment Pvt Ltd
Getaway Films
Reliance Entertainment
Rampage Motion Pictures Ltd

Status
Released

Release Date
1 Feb 2013

Genre
Comedy,Crime

Producer
Bejoy Nambiar
Sharada Trilok

Star Cast
Neil Nitin Mukesh.... David
Chiyaan Vikram.... David
Vinay Virmani.... David
Lara Dutta.... Neelam
Tabu.... Frenny
Isha Sharwani.... Roma
Rohini Hattangadi.... Malati Tai
Nasser.... Noel
Nishan Nanaiah.... Peter
Monica Dogra
Milind Soman
Ajinkya Deo
Pralhad Kakkar
Satish Kaushik
Sarika
Sheetal Menon.... Suzy
Akarsh Khurana.... Ghani
Ruby Chakravarthy.... Mariam
Shweta Pandit.... Alice
Adhir Bhatt
Neil Bhoopalam
Manish Jha
Remo Fernandes
Uday Chandra
John Vijay
Sanjeev Sharma

Story / Writers
Bejoy Nambiar

Publicity Pro
Spice

Censor Details:

Censor Dates
29 Jan 2013

Reels
Not Available.

Length in metres
0.0

Music Director

Bramfatura
Mikey McCleary
Maatibaani
Remo Fernandes
Prashant Pillai
Gaurav Godkhindi
Aaron Carvalho
Dub Sharma

Color
C
Language
Hindi
Director

Bejoy Nambiar

Singers

Lucky Ali
Rekha Bhardwaj
Nirali Kartik
Joyshanti
Remo Fernandes
Naresh Iyer
Shweta Pandit
Modern Mafia
Anirudh
Swetha Mohan
Kartik
Nikhil D'Souza
Priti Pillai
Marianne
Tara Sitaria
Saurabh Roy
Aaron Carvalho

Lyricist

Maatibaani
Joyshanti
Abhijeet Deshpande
Gopal Datt
Ankur Tewari
Turaz
Mikey McCleary
Priti Pillai
Aaron Carvalho

Editor

Sreekar Prasad

Action

Javed Eijaz

Screenplay

Bejoy Nambiar
Natasha Sahgal

Dialogue

Abhijeet Deshpande

Shooting Location(City & Country)
India

Music Company
T-Series


